<?xml version="1.0" encoding="UTF-8" standalone="no"?>
<!DOCTYPE svg PUBLIC "-//W3C//DTD SVG 1.1//EN" "http://www.w3.org/Graphics/SVG/1.1/DTD/svg11.dtd">
<svg width="100%" height="100%" viewBox="0 0 748 506" version="1.1" xmlns="http://www.w3.org/2000/svg" xmlns:xlink="http://www.w3.org/1999/xlink" xml:space="preserve" xmlns:serif="http://www.serif.com/" style="fill-rule:evenodd;clip-rule:evenodd;stroke-linejoin:round;stroke-miterlimit:2;">
    <g id="Background">
        <path d="M457.5,0L488.5,0C533.345,13.567 532.669,15.279 571.209,41.865C702.146,132.19 728.903,142.825 747.999,205.5L747.999,227.5C732.94,276.593 721.372,278.56 687.188,315.187C684.034,318.566 620.365,377.687 578.211,406.138C576.666,407.18 576.611,407.004 558.729,418.908C542.356,429.808 567.447,479.915 480.41,497.233C479.66,497.382 431.642,513.504 244.466,489.748C234.264,488.453 173.068,480.687 140.109,414.69C120.463,375.349 128.227,337.748 125.586,336.4C120.24,333.673 41.253,320.439 10.678,244.426C0.82,219.92 5.714,218.419 0,207.5L0,163.5C1.284,161.105 8.41,102.78 41.275,66.31C42.427,65.031 62.09,37.929 94.609,24.758C180.958,-10.216 269.339,58.974 300.961,115.253C303.692,120.113 317.247,103.273 322.23,100.08C336.867,90.703 399.49,19.213 435.43,6.327C446.307,2.428 446.587,4.029 457.5,-0L334.499,122C307.486,122.973 305.909,123.324 306.558,125.481C309.451,135.1 333.694,165.025 308.532,249.512C298.776,282.268 280.192,302.768 276.677,306.645C273.047,310.649 338.983,357.6 346.663,364.301C348.706,366.083 415.081,413.86 443.395,425.752C498.237,448.786 551.327,418.787 551.973,414.617C554.511,398.235 561.906,250.419 525.086,175.7C489.527,103.539 448.993,118.624 412.504,118.922C379.156,119.194 340.732,121.608 334.499,122L457.5,-0L307.967,118.868C308.485,119.342 309.003,119.816 309.521,120.29C318.778,119.316 452.96,108.781 458.528,109.252C567.525,118.474 557.902,336.404 557.929,343.5C558,362.53 558.537,393.293 556.074,408.453C554.874,415.837 559.418,410.585 565.787,406.866C611.854,379.966 721.326,289.302 736.763,246.61C758.318,186.999 724.806,155.395 590.256,64.912C553.857,40.434 476.454,-44.461 394.798,36.796C375.463,56.036 374.334,54.568 354.764,73.764C351.051,77.405 311.49,116.208 307.967,118.868L457.5,-0L125.998,315.495C125.038,302.671 123.882,257.833 127.245,231.462C142.751,109.874 280.393,127.036 298.282,121.135C299.368,120.777 283.331,84.021 238.791,54.135C39.17,-79.811 -115.647,264.473 121.521,325.442C128.645,327.273 125.709,322.693 125.998,315.495L457.5,-0L362.494,492.999C504.043,505.081 526.37,475.903 534.861,464.806C549.348,445.874 550.977,424.005 548.629,424.893C547.946,425.151 495.53,461.987 427.658,428.192C389.903,409.392 299.567,344.05 269.352,316.682C265.947,313.598 231.722,359.103 140.454,339.789C137.244,339.109 135.888,338.264 135.859,341.496C135.837,343.948 127.41,414.984 194.217,460.856C233.152,487.589 305.781,485.773 362.494,492.999L457.5,-0L295.018,125.207C293.439,123.942 184.818,123.127 151.962,175.764C122.723,222.607 133.351,273.067 133.801,298.493C133.845,300.939 134.333,328.499 136.36,328.961C211.558,346.129 249.998,316.819 257.809,310.862C263.179,306.768 248.893,300.859 236.106,281.734C187.621,209.212 245.233,170.778 295.018,125.207L457.5,-0L313.996,183.507C313.957,172.142 315.375,159.392 305.465,134.514C303.612,129.865 302.977,124.298 299.19,128.183C247.003,181.72 184.385,221.313 266.621,300.351C268.239,301.905 274.328,294.459 274.861,293.808C307.315,254.126 310.785,204.22 313.996,183.507L457.5,0Z" style="fill:rgb(220,216,204);fill-opacity:0.98;"/>
        <path d="M307.967,118.868C308.485,119.342 309.003,119.816 309.521,120.29C308.47,119.853 308.495,120.061 307.967,118.868Z" style="fill:rgb(108,107,101);fill-opacity:0.16;"/>
    </g>
</svg>
